<svg width="44" height="46" viewBox="0 0 44 46" fill="none" xmlns="http://www.w3.org/2000/svg">
<path d="M13.6666 10.5V8.83329C13.6666 5.14579 13.6666 2.16663 20.3333 2.16663H23.6666C30.3333 2.16663 30.3333 5.14579 30.3333 8.83329V10.5M13.6666 43.8333H30.3333C38.7083 43.8333 40.2083 40.4791 40.6458 36.3958L42.2083 19.7291C42.7708 14.6458 41.3125 10.5 32.4166 10.5H11.5833C2.68746 10.5 1.22913 14.6458 1.79163 19.7291L3.35413 36.3958C3.79163 40.4791 5.29163 43.8333 13.6666 43.8333Z" stroke="white" stroke-width="3.125" stroke-miterlimit="10" stroke-linecap="round" stroke-linejoin="round"/>
<path d="M26.1666 27.2083V25.0833C26.1666 23 26.1666 23 24.0833 23H19.9166C17.8333 23 17.8333 23 17.8333 25.0833V27.2291M26.1666 27.2083C26.1666 29.4791 26.1458 31.3333 22 31.3333C17.875 31.3333 17.8333 29.5 17.8333 27.2291M26.1666 27.2083C31.9254 26.4914 37.4086 24.3268 42.1041 20.9166M17.8333 27.2291C12.4375 26.625 7.14581 24.6875 2.45831 21.4791" stroke="white" stroke-width="3.125" stroke-miterlimit="10" stroke-linecap="round" stroke-linejoin="round"/>
</svg>
