<?xml version="1.0" encoding="utf-8"?>
<!-- Generator: Adobe Illustrator 17.0.0, SVG Export Plug-In . SVG Version: 6.00 Build 0)  -->
<!DOCTYPE svg PUBLIC "-//W3C//DTD SVG 1.1//EN" "http://www.w3.org/Graphics/SVG/1.1/DTD/svg11.dtd">
<svg version="1.1" id="Layer_1" xmlns="http://www.w3.org/2000/svg" xmlns:xlink="http://www.w3.org/1999/xlink" x="0px" y="0px"
	 width="1439px" height="116.375px" viewBox="0 0 1439 116.375" enable-background="new 0 0 1439 116.375" xml:space="preserve">
<path fill="none" stroke="#FFFFFF" d="M0.001,63.018c0.022-0.012,0.045-0.024,0.069-0.038c0.218-0.119,0.544-0.296,0.978-0.526
	c0.867-0.461,2.164-1.139,3.876-2.001c3.425-1.725,8.514-4.192,15.165-7.152c13.304-5.92,32.857-13.816,57.845-21.713
	C127.911,15.794,199.627,0,286.566,0c73.567,0,134.844,26.489,198.996,54.22c2.451,1.06,4.907,2.121,7.368,3.183
	c66.838,28.844,137.359,57.967,228.393,58.934c83.374,0.885,139.221-13.675,198.595-29.155c2.189-0.571,4.383-1.143,6.583-1.715
	c61.86-16.096,128.769-32.615,235.409-33.416c84.16-0.633,153.55,2.16,201.89,5.111c24.18,1.475,43.09,2.99,55.96,4.136
	c6.43,0.573,11.35,1.054,14.67,1.391c1.65,0.169,2.91,0.302,3.75,0.392c0.34,0.037,0.62,0.067,0.82,0.09"/>
</svg>
