<svg width="1439" height="803" viewBox="0 0 1439 803" fill="none" xmlns="http://www.w3.org/2000/svg">
<path d="M1438.68 63.5808C1439.02 63.6179 1439.3 63.6479 1439.5 63.6704V802.5L0.5 802.5V63.5184C0.521606 63.5066 0.544678 63.494 0.569092 63.4807C0.786865 63.3619 1.1134 63.1852 1.54712 62.9545C2.41443 62.4931 3.71069 61.8157 5.4231 60.953C8.84778 59.2277 13.9369 56.7614 20.5885 53.8013C33.892 47.8809 53.4451 39.9849 78.4335 32.0883C128.411 16.2948 200.126 0.499878 287.066 0.499878C360.633 0.499878 421.91 26.9887 486.062 54.72C488.513 55.7798 490.969 56.8414 493.43 57.9034C560.268 86.7477 630.789 115.87 721.823 116.837C805.197 117.722 861.044 103.162 920.418 87.6821C922.607 87.1114 924.801 86.5395 927.001 85.967C988.861 69.871 1055.77 53.3525 1162.41 52.5512C1246.57 51.9187 1315.96 54.7113 1364.3 57.6618C1388.48 59.137 1407.39 60.6518 1420.26 61.7976C1426.69 62.3705 1431.61 62.8512 1434.93 63.1886C1436.58 63.3573 1437.84 63.4902 1438.68 63.5808Z" fill="#1E1E1E" stroke="white"/>
</svg>
