<svg width="392" height="1358" viewBox="0 0 392 1358" fill="none" xmlns="http://www.w3.org/2000/svg">
<path d="M391.5 1357.5H0.5L0.5 20.6371C0.536102 20.6143 0.576538 20.5889 0.621246 20.5608C0.853851 20.4149 1.20258 20.2 1.66409 19.9259C2.5871 19.3778 3.96103 18.593 5.75876 17.6505C9.35428 15.7653 14.6443 13.2493 21.4118 10.7324C34.9473 5.69849 54.3878 0.663452 78 0.663452C98.7311 0.663452 115.657 6.396 133.642 12.5952L134.412 12.8608C152.165 18.9812 170.994 25.4729 195.465 27.1985C219.079 28.8636 240.388 22.9265 262.993 16.2419C264.043 15.9315 265.095 15.6195 266.151 15.3065C287.845 8.87512 310.894 2.04199 338.525 0.662842C361.355 -0.476685 374.614 4.55676 382.15 9.81592C385.921 12.4473 388.27 15.1429 389.674 17.1707C390.377 18.1848 390.843 19.0325 391.132 19.6223C391.277 19.9171 391.377 20.1475 391.44 20.3019C391.466 20.3652 391.486 20.4159 391.5 20.4529L391.5 1357.5Z" fill="#1E1E1E" stroke="white"/>
</svg>
