<svg width="46" height="46" viewBox="0 0 46 46" fill="none" xmlns="http://www.w3.org/2000/svg">
<path d="M15.6435 37.5833H14.6019C6.26853 37.5833 2.10187 35.5 2.10187 25.0833V14.6666C2.10187 6.33329 6.26853 2.16663 14.6019 2.16663H31.2685C39.6019 2.16663 43.7685 6.33329 43.7685 14.6666V25.0833C43.7685 33.4166 39.6019 37.5833 31.2685 37.5833H30.2269C29.581 37.5833 28.956 37.8958 28.5602 38.4166L25.4352 42.5833C24.0602 44.4166 21.8102 44.4166 20.4352 42.5833L17.3102 38.4166C16.9769 37.9583 16.206 37.5833 15.6435 37.5833Z" stroke="white" stroke-width="3.125" stroke-miterlimit="10" stroke-linecap="round" stroke-linejoin="round"/>
<path d="M31.2602 20.9166H31.281M22.9248 20.9166H22.9456M14.5914 20.9166H14.6081" stroke="white" stroke-width="4.16667" stroke-linecap="round" stroke-linejoin="round"/>
</svg>
