<svg width="46" height="46" viewBox="0 0 46 46" fill="none" xmlns="http://www.w3.org/2000/svg">
<path d="M27.1667 17.375V23.4167H32.5833C33 23.4167 33.2083 23.8333 33.2083 24.25L32.375 28.2083C32.375 28.4167 31.9583 28.625 31.75 28.625H27.1667V43.8333H20.9167V28.8333H17.375C16.9583 28.8333 16.75 28.625 16.75 28.2083V24.25C16.75 23.8333 16.9583 23.625 17.375 23.625H20.9167V16.75C20.9167 13.2083 23.625 10.5 27.1667 10.5H32.7917C33.2083 10.5 33.4167 10.7083 33.4167 11.125V16.125C33.4167 16.5417 33.2083 16.75 32.7917 16.75H27.7917C27.375 16.75 27.1667 16.9583 27.1667 17.375Z" stroke="white" stroke-width="3.125" stroke-miterlimit="10" stroke-linecap="round"/>
<path d="M29.25 43.8333H16.75C6.33329 43.8333 2.16663 39.6666 2.16663 29.25V16.75C2.16663 6.33329 6.33329 2.16663 16.75 2.16663H29.25C39.6666 2.16663 43.8333 6.33329 43.8333 16.75V29.25C43.8333 39.6666 39.6666 43.8333 29.25 43.8333Z" stroke="white" stroke-width="3.125" stroke-linecap="round" stroke-linejoin="round"/>
</svg>
