<svg width="45" height="46" viewBox="0 0 45 46" fill="none" xmlns="http://www.w3.org/2000/svg">
<path d="M42.5396 19.25H22.9563V26.9583H34.4146C34.2063 28.8333 32.9563 31.75 30.2479 33.625C28.5813 34.875 26.0813 35.7083 22.9563 35.7083C17.5396 35.7083 12.7479 32.1666 11.0813 26.9583C10.6646 25.7083 10.4563 24.25 10.4563 22.7916C10.4563 21.3333 10.6646 19.875 11.0813 18.625C11.2896 18.2083 11.2896 17.7916 11.4979 17.5833C13.3729 13.2083 17.7479 10.0833 22.9563 10.0833C26.9146 10.0833 29.4146 11.75 31.0813 13.2083L36.9146 7.37496C33.3729 4.24996 28.5813 2.16663 22.9563 2.16663C14.8313 2.16663 7.74792 6.74996 4.41459 13.625C2.95626 16.5416 2.12292 19.6666 2.12292 23C2.12292 26.3333 2.95626 29.4583 4.41459 32.375C7.74792 39.25 14.8313 43.8333 22.9563 43.8333C28.5813 43.8333 33.3729 41.9583 36.7063 38.8333C40.6646 35.2916 42.9563 29.875 42.9563 23.4166C42.9563 21.75 42.7479 20.5 42.5396 19.25Z" stroke="white" stroke-width="3.125" stroke-miterlimit="10" stroke-linecap="round" stroke-linejoin="round"/>
</svg>
