<svg width="45" height="46" viewBox="0 0 45 46" fill="none" xmlns="http://www.w3.org/2000/svg">
<path d="M16.1454 43.8333H28.6454C39.0621 43.8333 43.2288 39.6666 43.2288 29.25V16.75C43.2288 6.33329 39.0621 2.16663 28.6454 2.16663H16.1454C5.72877 2.16663 1.5621 6.33329 1.5621 16.75V29.25C1.5621 39.6666 5.72877 43.8333 16.1454 43.8333Z" stroke="white" stroke-width="3.125" stroke-linecap="round" stroke-linejoin="round"/>
<path d="M22.3955 30.2917C23.353 30.2917 24.3012 30.1031 25.1859 29.7367C26.0705 29.3702 26.8743 28.8331 27.5514 28.156C28.2285 27.4789 28.7656 26.6751 29.1321 25.7904C29.4985 24.9058 29.6871 23.9576 29.6871 23C29.6871 22.0425 29.4985 21.0943 29.1321 20.2096C28.7656 19.325 28.2285 18.5211 27.5514 17.8441C26.8743 17.167 26.0705 16.6299 25.1859 16.2634C24.3012 15.897 23.353 15.7084 22.3955 15.7084C20.4616 15.7084 18.6069 16.4766 17.2395 17.8441C15.872 19.2115 15.1038 21.0662 15.1038 23C15.1038 24.9339 15.872 26.7886 17.2395 28.156C18.6069 29.5235 20.4616 30.2917 22.3955 30.2917Z" stroke="white" stroke-width="3.125" stroke-linecap="round" stroke-linejoin="round"/>
<path d="M34.1371 12.5834H34.1621" stroke="white" stroke-width="4.16667" stroke-linecap="round" stroke-linejoin="round"/>
</svg>
