<svg width="37" height="34" viewBox="0 0 37 34" fill="none" xmlns="http://www.w3.org/2000/svg">
<path d="M36.0521 11.9693L36.0522 11.9694C36.189 12.0606 36.3011 12.1843 36.3787 12.3293C36.4562 12.4744 36.4967 12.6363 36.4966 12.8008M36.0521 11.9693L36.1979 12.8006M36.0521 11.9693L19.2522 0.769405M36.0521 11.9693L19.2522 0.769405M36.4966 12.8008L36.1979 12.8006M36.4966 12.8008V12.8006H36.1979M36.4966 12.8008V31.0005C36.4966 31.6367 36.2439 32.2468 35.7941 32.6966C35.3442 33.1464 34.7341 33.3992 34.0979 33.3992H3.29794C2.66177 33.3992 2.05166 33.1464 1.60182 32.6966C1.15199 32.2468 0.899271 31.6367 0.899271 31.0005L0.899271 12.8008L1.19794 12.8006M36.1979 12.8006V31.0005C36.1979 31.5574 35.9767 32.0916 35.5829 32.4854C35.189 32.8792 34.6549 33.1005 34.0979 33.1005H3.29794C2.74098 33.1005 2.20684 32.8792 1.81301 32.4854C1.41919 32.0916 1.19794 31.5574 1.19794 31.0005V12.8006M1.19794 12.8006H0.899271M1.19794 12.8006H0.899271M0.899271 12.8006C0.899196 12.6362 0.939704 12.4743 1.0172 12.3293C1.09473 12.1843 1.20687 12.0606 1.34368 11.9694L1.34377 11.9693L18.1437 0.769405L18.3094 1.01785M0.899271 12.8006L1.50944 12.2178L18.3094 1.01785M18.3094 1.01785C18.4245 0.941104 18.5597 0.900146 18.6979 0.900146C18.8362 0.900146 18.9714 0.941104 19.0864 1.01785M18.3094 1.01785L18.1438 0.769345C18.3079 0.65989 18.5007 0.60148 18.6979 0.60148C18.8952 0.60148 19.088 0.65989 19.2521 0.769345L19.0864 1.01785M19.0864 1.01785L19.2522 0.769405M19.0864 1.01785L19.2522 0.769405M2.8966 14.7385L13.9172 22.5993L2.8966 30.3819V14.7385ZM4.914 31.4018L15.9613 23.5992H21.4346L32.4884 31.4018H4.914ZM34.4993 30.3819L23.4787 22.5993L34.4993 14.7385V30.3819ZM15.9638 21.6019L3.65774 12.8281L18.698 2.80127L33.7467 12.828L21.4322 21.6019H15.9638Z"  stroke="white" stroke-width="2"/>
</svg>
