<svg width="39" height="39" viewBox="0 0 39 39" fill="none" xmlns="http://www.w3.org/2000/svg">
<path d="M37 30.9276C37 31.5586 36.8598 32.207 36.5618 32.838C36.2639 33.4689 35.8783 34.0648 35.3701 34.6257C34.5113 35.5721 33.5648 36.2556 32.4957 36.6938C31.4442 37.1319 30.305 37.3598 29.0781 37.3598C27.2904 37.3598 25.3801 36.9392 23.3645 36.0804C21.349 35.2216 19.3335 34.0648 17.3355 32.6102C15.2991 31.1206 13.3775 29.4802 11.5869 27.7028C9.81457 25.9186 8.17994 24.0028 6.69705 21.9717C5.25989 19.9737 4.10315 17.9757 3.26189 15.9952C2.42063 13.9972 2 12.0868 2 10.2641C2 9.07229 2.21032 7.93308 2.63095 6.8815C3.05158 5.81239 3.71758 4.83092 4.64647 3.9546C5.76815 2.85045 6.99499 2.30713 8.29194 2.30713C8.78267 2.30713 9.27341 2.41229 9.71157 2.6226C10.1673 2.83292 10.5704 3.14839 10.8858 3.60408L14.9519 9.33519C15.2674 9.77334 15.4952 10.1764 15.653 10.562C15.8107 10.9301 15.8983 11.2981 15.8983 11.6311C15.8983 12.0518 15.7757 12.4724 15.5303 12.8755C15.3025 13.2786 14.9695 13.6992 14.5488 14.1199L13.2168 15.5045C13.024 15.6972 12.9364 15.9251 12.9364 16.2055C12.9364 16.3457 12.9539 16.4684 12.989 16.6086C13.0416 16.7488 13.0941 16.854 13.1292 16.9591C13.4447 17.5375 13.988 18.2911 14.7591 19.2025C15.5478 20.1139 16.3891 21.0428 17.3005 21.9717C18.2469 22.9006 19.1582 23.7594 20.0871 24.548C20.9985 25.3192 21.7521 25.845 22.348 26.1605C22.4357 26.1955 22.5408 26.2481 22.6635 26.3007C22.8037 26.3532 22.9439 26.3708 23.1017 26.3708C23.3996 26.3708 23.6274 26.2656 23.8202 26.0728L25.1522 24.7584C25.5904 24.3202 26.011 23.9872 26.4141 23.7769C26.8172 23.5315 27.2203 23.4088 27.6585 23.4088C27.9915 23.4088 28.342 23.4789 28.7276 23.6367C29.1132 23.7944 29.5163 24.0222 29.9544 24.3202L35.7556 28.4389C36.2113 28.7544 36.5268 29.1224 36.7196 29.5606C36.8948 29.9987 37 30.4369 37 30.9276Z" stroke="white" stroke-width="2.62895" stroke-miterlimit="10"/>
</svg>
