<svg width="42" height="42" viewBox="0 0 42 42" fill="none" xmlns="http://www.w3.org/2000/svg">
<path d="M5 0C2.24958 0 0 2.24958 0 5V37C0 39.7504 2.24958 42 5 42H37C39.7504 42 42 39.7504 42 37V5C42 2.24958 39.7504 0 37 0H5ZM5 2H37C38.6716 2 40 3.32842 40 5V37C40 38.6716 38.6716 40 37 40H5C3.32842 40 2 38.6716 2 37V5C2 3.32842 3.32842 2 5 2ZM22.043 6C21.4915 6.00005 21.0441 6.44655 21.043 6.99805C21.043 6.99805 21.032 11.8733 21.0215 16.7598C21.0162 19.203 21.0098 21.6488 21.0059 23.4902C21.0019 25.3317 21 26.4968 21 26.5938C21 28.409 19.3514 29.8926 17.4727 29.8926C15.6089 29.8926 14.1211 28.4029 14.1211 26.5391C14.1211 24.6753 15.6089 23.1875 17.4727 23.1875C17.5358 23.1875 17.6631 23.2083 17.8809 23.2344C18.165 23.2684 18.4501 23.1792 18.6641 22.9891C18.8781 22.799 19.0003 22.5264 19 22.2402V18.0391C19 17.5111 18.5895 17.0741 18.0625 17.041C17.9067 17.0312 17.7106 17.0117 17.4727 17.0117C12.2231 17.0117 7.94533 21.2896 7.94533 26.5391C7.94533 31.7886 12.2232 36.0664 17.4727 36.0664C22.722 36.0664 27 31.7886 27 26.5391V17.4902C28.4546 18.6537 30.2675 19.3906 32.2695 19.3906C32.5426 19.3906 32.8023 19.3745 33.0508 19.3516C33.5654 19.3041 33.9591 18.8723 33.959 18.3555V13.6856C33.9593 13.1611 33.5544 12.7255 33.0313 12.6875C29.8866 12.4619 27.3799 10.0122 27.0527 6.89649C26.9997 6.38724 26.5706 6.0003 26.0586 6.00001L22.043 6ZM23.041 8H25.3223C26.049 11.2987 28.6267 13.8144 31.959 14.4453V17.3105C29.8201 17.2019 27.9415 16.1349 26.8359 14.4531C26.5931 14.0835 26.1363 13.9173 25.7127 14.0443C25.2891 14.1714 24.9993 14.5616 25 15.0039V26.5391C25 30.7075 21.6413 34.0664 17.4727 34.0664C13.3042 34.0664 9.94532 30.7075 9.94532 26.5391C9.94532 22.5385 13.0661 19.3632 17 19.1074V21.2832C14.2864 21.5357 12.1211 23.7622 12.1211 26.5391C12.1211 29.4833 14.5285 31.8926 17.4727 31.8926C20.4019 31.8926 23 29.5865 23 26.5938C23 26.6427 23.0019 25.3356 23.0059 23.4941C23.0098 21.6527 23.0162 19.2069 23.0215 16.7637C23.0309 12.3768 23.0392 8.8492 23.041 8Z" fill="white"/>
</svg>
